PathFileType	4	(X/Y/Z)	./resultDataOpenSim/trcMotMarkerGrf/sub09/qtm-15-06.trc
DataRate	CameraRate	NumFrames	NumMarkers	Units	OrigDataRate	OrigDataStartFrame	OrigNumFrames
250.000000	250.000000	14	24	m	250.000000	189	502
Frame#	Time	L.Toe.Tip			R.Toe.Tip			L.Ankle.Lat			R.Ankle.Lat			L.Ankle.Med			R.Ankle.Med			L.Heel			R.Heel			L.Knee.Lat			R.Knee.Lat			L.Knee.Med			R.Knee.Med			L.Thigh.Upper			R.Thigh.Upper			L.ASIS			R.ASIS			V.Sacral			L.Acromium			R.Acromium			C7			L.Elbow			R.Elbow			L.Wrist.Lat			R.Wrist.Lat
		X1	Y1	Z1	X2	Y2	Z2	X3	Y3	Z3	X4	Y4	Z4	X5	Y5	Z5	X6	Y6	Z6	X7	Y7	Z7	X8	Y8	Z8	X9	Y9	Z9	X10	Y10	Z10	X11	Y11	Z11	X12	Y12	Z12	X13	Y13	Z13	X14	Y14	Z14	X15	Y15	Z15	X16	Y16	Z16	X17	Y17	Z17	X18	Y18	Z18	X19	Y19	Z19	X20	Y20	Z20	X21	Y21	Z21	X22	Y22	Z22	X23	Y23	Z23	X24	Y24	Z24

189	0.752	0.080069298	-0.058012707	0.02268291	-0.63855785	0.074506768	0.11149667	-0.060926736	-0.024861169	-0.044381178	-0.67195458	0.22777205	0.13637092	-0.05784369	-0.0063226822	0.053551558	-0.61396166	0.2177265	0.055189657	-0.13660414	-0.062663358	-0.014437639	-0.70339057	0.27242851	0.071669129	-0.020886323	0.39301845	-0.087385297	-0.26854772	0.39213972	0.23724375	-0.043392714	0.39516386	0.035676407	-0.24276417	0.35960906	0.11199543	-0.15977119	0.78521093	-0.14320761	-0.23375804	0.78854181	0.22533217	-0.096541697	0.86533801	-0.066959756	-0.12039267	0.86674941	0.16818848	-0.2733605	0.92776593	0.025016681	-0.13798192	1.3210085	-0.14323616	-0.19670851	1.3375724	0.18610021	-0.23171355	1.3741004	0.013584778	-0.30559116	0.9995899	-0.1924006	-0.32859091	0.99072921	0.26836486	-0.20983952	0.75708589	-0.24402915	-0.13026541	0.79993821	0.28952438
190	0.756	0.080701014	-0.058225447	0.022638201	-0.62957697	0.07820958	0.11278036	-0.060009159	-0.024983866	-0.044632427	-0.65937968	0.23244743	0.13607136	-0.056721378	-0.0061735461	0.053287251	-0.60178351	0.22185115	0.055212488	-0.13583523	-0.062113563	-0.014931436	-0.68993957	0.27829907	0.071834997	-0.014286115	0.39239831	-0.088239455	-0.25436308	0.39002425	0.23672417	-0.035121971	0.39515729	0.034954508	-0.2292246	0.35874093	0.11187532	-0.15689405	0.7863502	-0.14470588	-0.22731223	0.78588806	0.2254495	-0.090736916	0.86598394	-0.067877252	-0.11454931	0.86531375	0.16754906	-0.26738096	0.92671871	0.026293319	-0.12926062	1.3196033	-0.14369717	-0.18990371	1.3367907	0.18565308	-0.22347742	1.3736081	0.01246831	-0.2967478	0.99775229	-0.19349345	-0.32241518	0.98939556	0.26641019	-0.20078789	0.75543866	-0.24409831	-0.12693519	0.79724412	0.29036754
191	0.76	0.080995044	-0.058406354	0.022741849	-0.61928467	0.082285467	0.11412928	-0.059246814	-0.025315156	-0.045089241	-0.64650909	0.23716038	0.13577525	-0.056088133	-0.0060850845	0.052871659	-0.589366	0.22604332	0.055215697	-0.13529469	-0.061837912	-0.015763899	-0.67647082	0.28376806	0.071822249	-0.008332841	0.39138616	-0.088995554	-0.23985729	0.38821516	0.23607997	-0.026969176	0.39430539	0.034429643	-0.21590883	0.35812357	0.11184819	-0.1536047	0.78724266	-0.14566614	-0.22115208	0.78344424	0.22557902	-0.084740921	0.86690227	-0.068754119	-0.10886869	0.86407466	0.16700513	-0.26144085	0.92551339	0.027571651	-0.12044043	1.3183552	-0.14400946	-0.18279663	1.3362373	0.18515437	-0.21539108	1.3731095	0.01143405	-0.28777757	0.99609388	-0.19460758	-0.31613708	0.98842665	0.26441025	-0.19160515	0.75386883	-0.24409405	-0.12393223	0.79465407	0.29116815
192	0.764	0.080982449	-0.058552468	0.022827392	-0.60789713	0.086585217	0.11549535	-0.058663473	-0.02582718	-0.045714719	-0.63328011	0.24187013	0.13557899	-0.055888622	-0.0060250612	0.052293337	-0.57664031	0.23030692	0.055212529	-0.13509705	-0.061739629	-0.01673384	-0.6630657	0.28886936	0.071825109	-0.0027942694	0.39006958	-0.089609334	-0.2252613	0.38671994	0.2354703	-0.018838061	0.39290253	0.034103867	-0.20294792	0.35776674	0.11188097	-0.14963589	0.7878138	-0.14598468	-0.21510495	0.78129998	0.22566871	-0.078610809	0.86790703	-0.069570135	-0.10331497	0.86301769	0.16655464	-0.2555561	0.92425593	0.028769229	-0.11151332	1.3172449	-0.14418326	-0.17540978	1.3358955	0.18464238	-0.20739995	1.3726368	0.010484886	-0.27865248	0.99465173	-0.19594944	-0.30987569	0.98794169	0.26239666	-0.182249	0.75240741	-0.24401393	-0.12112071	0.79223981	0.29190705
193	0.768	0.080800553	-0.058675526	0.022847209	-0.59564212	0.090999664	0.1168451	-0.05818957	-0.026447911	-0.046368762	-0.61976937	0.24651187	0.13553413	-0.055929346	-0.0059846193	0.051672316	-0.56359963	0.23457914	0.055223691	-0.13519164	-0.061713573	-0.017626412	-0.64967481	0.29368281	0.07195348	0.0024655042	0.38849158	-0.090086249	-0.21067389	0.38551741	0.23493594	-0.010788115	0.39114468	0.033982514	-0.19019564	0.35761675	0.11181621	-0.14504401	0.7880374	-0.14579094	-0.20899844	0.77952872	0.22568528	-0.072420548	0.8688558	-0.070339086	-0.097850703	0.86215323	0.16618959	-0.24961892	0.92294027	0.029660297	-0.10250327	1.3162526	-0.14423354	-0.16777836	1.3357409	0.18416069	-0.1994492	1.3722284	0.0096301255	-0.26938594	0.99341708	-0.1974818	-0.30372823	0.98802355	0.26041683	-0.17268281	0.75108162	-0.24385798	-0.11833984	0.79006477	0.29257726
194	0.772	0.080607498	-0.058784704	0.022840889	-0.5826466	0.095521179	0.11816669	-0.057743857	-0.027057322	-0.046873841	-0.60611118	0.25101045	0.13563841	-0.055997421	-0.0059673072	0.051196146	-0.55029546	0.23877085	0.055271407	-0.13537332	-0.061670918	-0.018306794	-0.63620655	0.29825807	0.072217872	0.0074754805	0.38667666	-0.090435328	-0.19605156	0.38456946	0.23445957	-0.0031566159	0.38909108	0.03402836	-0.17723524	0.35751578	0.11143393	-0.14007588	0.78795635	-0.1453725	-0.20270197	0.77815359	0.22562367	-0.066248293	0.86965069	-0.071083535	-0.092442565	0.86150526	0.16590099	-0.24318061	0.92142433	0.029887326	-0.0934667	1.3153689	-0.14417939	-0.15994812	1.3357423	0.18373879	-0.19152392	1.3719084	0.0088823188	-0.25999836	0.99235121	-0.19897946	-0.29757387	0.98863023	0.2584944	-0.1629004	0.74990253	-0.24364554	-0.11553937	0.78814611	0.29317619
195	0.776	0.080526327	-0.058884869	0.022866748	-0.5689085	0.10016907	0.11944862	-0.057277953	-0.027528584	-0.047098893	-0.59235123	0.25530326	0.13588967	-0.055932441	-0.0059850493	0.051005575	-0.53679989	0.24281351	0.055376772	-0.13541899	-0.061547313	-0.018726843	-0.62261859	0.3025628	0.072579945	0.012235359	0.3846674	-0.0906522	-0.18129819	0.38385136	0.23405453	0.0034367398	0.38671192	0.034085343	-0.16376952	0.35735733	0.11060236	-0.13487172	0.78763202	-0.1450006	-0.19615235	0.77713503	0.22549341	-0.060165979	0.87023681	-0.071812009	-0.087070929	0.86109295	0.16567337	-0.23580385	0.91958151	0.029079022	-0.084475536	1.3145921	-0.14404931	-0.1519777	1.3358666	0.1833878	-0.18365276	1.3716795	0.0082437707	-0.25052133	0.99141581	-0.2002282	-0.2912238	0.98962917	0.2566253	-0.1529316	0.74886018	-0.24341439	-0.11274593	0.78645848	0.29370333
196	0.78	0.080606234	-0.058980757	0.022964662	-0.55433286	0.10488822	0.1206711	-0.056769536	-0.027795989	-0.047020228	-0.57836217	0.25937194	0.13632746	-0.05566102	-0.0060572668	0.051124922	-0.52314736	0.24667228	0.055567642	-0.13524195	-0.061323576	-0.018890296	-0.60893194	0.30652529	0.073041609	0.016763584	0.38255928	-0.090746315	-0.16636615	0.38336007	0.23371231	0.0085126127	0.38405363	0.033999803	-0.14992033	0.35722322	0.10936482	-0.12930771	0.7871105	-0.14482924	-0.18935653	0.77639312	0.22530387	-0.054207144	0.87060077	-0.072515536	-0.081732325	0.86092176	0.16548314	-0.22808237	0.91768701	0.027558359	-0.075586757	1.3139161	-0.14386847	-0.14393604	1.3360842	0.18310785	-0.1758851	1.3715339	0.0077044988	-0.24101926	0.99058221	-0.20118725	-0.28470234	0.99089042	0.25481326	-0.14281172	0.74793683	-0.24319358	-0.10996844	0.7849629	0.29415991
197	0.784	0.080811324	-0.059074287	0.023147523	-0.53890937	0.10953833	0.12183135	-0.056219882	-0.027890644	-0.046717507	-0.56395308	0.26322859	0.13698865	-0.055211325	-0.0061969525	0.05147538	-0.50928216	0.25033064	0.055888274	-0.13493025	-0.061031477	-0.018822013	-0.59517447	0.31010465	0.073699734	0.021084195	0.38049558	-0.090737284	-0.15133	0.383039	0.23321497	0.012229529	0.38138041	0.033846847	-0.13599641	0.35728942	0.10787687	-0.12318512	0.78641913	-0.14489585	-0.18236652	0.77583898	0.22505651	-0.048346485	0.87076673	-0.073186742	-0.076431621	0.86098584	0.16530159	-0.22173209	0.91649746	0.026810933	-0.066820766	1.3133289	-0.14364234	-0.13589543	1.3363772	0.18289012	-0.16825781	1.3714659	0.0072488954	-0.23156457	0.98981266	-0.20195139	-0.2782175	0.99231337	0.2530807	-0.13255204	0.74712402	-0.24298637	-0.10719344	0.78362369	0.29455137
198	0.788	0.081053835	-0.05916193	0.023395237	-0.52289397	0.11395069	0.12293297	-0.055666638	-0.027909909	-0.046314023	-0.54911036	0.26684985	0.13782097	-0.054691106	-0.0063902578	0.051931995	-0.49509758	0.25378681	0.056392389	-0.1346396	-0.06072793	-0.018573334	-0.5813628	0.3133275	0.074653176	0.025211187	0.37862124	-0.090605514	-0.13634133	0.3827492	0.23216117	0.015199415	0.37908933	0.033873473	-0.12213286	0.35767334	0.1062859	-0.11650907	0.78554624	-0.14515084	-0.17524361	0.77539579	0.22474297	-0.042537481	0.87078837	-0.073831157	-0.071174132	0.86127337	0.16509587	-0.21762293	0.91645207	0.02782954	-0.058166952	1.3128239	-0.14336254	-0.12792667	1.3367439	0.18271935	-0.16077436	1.3714731	0.0068507885	-0.22219663	0.98905457	-0.20262298	-0.27192007	0.99381118	0.25145676	-0.1221473	0.74642511	-0.24278425	-0.10442313	0.78241687	0.29489599
199	0.792	0.081245572	-0.059238338	0.023649364	-0.50669087	0.11798859	0.12394255	-0.055179152	-0.027943812	-0.045917556	-0.53405801	0.27016098	0.13868824	-0.054224708	-0.0065971949	0.052383307	-0.48058426	0.25705418	0.057082583	-0.13446277	-0.060459485	-0.018240842	-0.5675284	0.31629258	0.075840948	0.029167693	0.37704505	-0.090282154	-0.12144167	0.38248301	0.23047696	0.017893579	0.37748388	0.034230583	-0.10829797	0.35842389	0.1046684	-0.10947164	0.7844565	-0.14551166	-0.16804407	0.77501398	0.22435527	-0.036761672	0.87073857	-0.074453777	-0.065960357	0.86177036	0.16483658	-0.21454382	0.91705391	0.029374971	-0.049605059	1.3124049	-0.14301778	-0.12009238	1.337191	0.18258293	-0.15341506	1.3715527	0.0064592187	-0.21290864	0.98826507	-0.20326199	-0.26582708	0.99531984	0.24997676	-0.11160005	0.74584807	-0.24258294	-0.10166704	0.78134061	0.29522194
200	0.796	0.081333721	-0.059300646	0.02384351	-0.49054581	0.12159054	0.12480859	-0.054829686	-0.028017304	-0.045595893	-0.51899318	0.27312127	0.13949345	-0.053897183	-0.0067806023	0.052766868	-0.46593216	0.26014099	0.057771024	-0.1344062	-0.060246737	-0.017935851	-0.55368061	0.31910015	0.077047857	0.032983944	0.37582988	-0.089714761	-0.10650624	0.38250236	0.22866967	0.020432574	0.37663381	0.034873805	-0.094411161	0.35956217	0.1030416	-0.10223277	0.78316391	-0.1459148	-0.16082305	0.77468197	0.2239023	-0.03102243	0.8706895	-0.075048053	-0.060777349	0.86245926	0.16451269	-0.21084619	0.91753095	0.029528126	-0.041121619	1.3120759	-0.14259977	-0.11243828	1.3377188	0.18247575	-0.14616771	1.3717093	0.0060227732	-0.20366322	0.98743181	-0.20389685	-0.25990717	0.99681629	0.24867547	-0.10093067	0.74539618	-0.24238109	-0.098909928	0.78041523	0.29555486
201	0.8	0.081316065	-0.059349137	0.023960528	-0.47445552	0.12476636	0.12552463	-0.054650398	-0.028093942	-0.045372665	-0.5038698	0.27577893	0.14025338	-0.053733688	-0.0069303032	0.053070168	-0.45140657	0.26302859	0.058124137	-0.13443774	-0.060092634	-0.017727785	-0.53974533	0.32173054	0.07807734	0.036660607	0.37497483	-0.088928689	-0.091470447	0.38306872	0.22723163	0.02274641	0.37638031	0.035649909	-0.080378153	0.36107804	0.10139208	-0.094874245	0.78175188	-0.14631942	-0.15362817	0.77442625	0.22341056	-0.025314718	0.87068036	-0.075603416	-0.05559705	0.86330865	0.16413662	-0.20610167	0.9176717	0.027928088	-0.032717559	1.3118301	-0.14211412	-0.10499507	1.3383137	0.18239785	-0.13902121	1.3719688	0.0055779101	-0.19443843	0.98657226	-0.20454007	-0.2541439	0.99831099	0.24756516	-0.090168098	0.74505736	-0.24217347	-0.096117488	0.77966463	0.29591403
202	0.804	0.081233936	-0.059386965	0.024046639	-0.45831764	0.12755565	0.12614764	-0.054604863	-0.028130662	-0.045229309	-0.48855806	0.27819949	0.14101587	-0.053701065	-0.0070543954	0.053310879	-0.43707903	0.2656665	0.058038649	-0.13451698	-0.059990401	-0.017625387	-0.52562101	0.32404971	0.078865651	0.040156661	0.37438962	-0.088004618	-0.076478551	0.38419706	0.22613004	0.024739404	0.37643855	0.036403173	-0.066204914	0.36293063	0.099698532	-0.087542641	0.78031533	-0.14669319	-0.1464928	0.77429657	0.22290891	-0.019626446	0.87069666	-0.076119148	-0.050394981	0.8642689	0.16373157	-0.20074556	0.91775329	0.02545828	-0.024407484	1.311651	-0.14158524	-0.097780801	1.3389512	0.18234709	-0.13192052	1.372368	0.0052217647	-0.18526296	0.98572551	-0.20519915	-0.24853512	0.99981823	0.24662499	-0.079326237	0.74481	-0.24194977	-0.093261708	0.77909814	0.29631532
